<?xml version="1.0" encoding="UTF-8" standalone="no"?>
<!-- Svg Vector Icons : http://www.onlinewebfonts.com/icon -->

<svg
   xmlns:dc="http://purl.org/dc/elements/1.1/"
   xmlns:cc="http://creativecommons.org/ns#"
   xmlns:rdf="http://www.w3.org/1999/02/22-rdf-syntax-ns#"
   xmlns:svg="http://www.w3.org/2000/svg"
   xmlns="http://www.w3.org/2000/svg"
   xmlns:sodipodi="http://sodipodi.sourceforge.net/DTD/sodipodi-0.dtd"
   xmlns:inkscape="http://www.inkscape.org/namespaces/inkscape"
   version="1.1"
   x="0px"
   y="0px"
   viewBox="0 0 1000 1000"
   enable-background="new 0 0 1000 1000"
   xml:space="preserve"
   id="svg4136"
   inkscape:version="0.91 r13725"
   sodipodi:docname="logo.svg"><defs
     id="defs4154" /><sodipodi:namedview
     pagecolor="#ffffff"
     bordercolor="#666666"
     borderopacity="1"
     objecttolerance="10"
     gridtolerance="10"
     guidetolerance="10"
     inkscape:pageopacity="0"
     inkscape:pageshadow="2"
     inkscape:window-width="1920"
     inkscape:window-height="1137"
     id="namedview4152"
     showgrid="false"
     inkscape:zoom="0.8359833"
     inkscape:cx="500"
     inkscape:cy="494.05281"
     inkscape:window-x="-8"
     inkscape:window-y="-8"
     inkscape:window-maximized="1"
     inkscape:current-layer="svg4136" /><metadata
     id="metadata4138"> Svg Vector Icons : http://www.onlinewebfonts.com/icon <rdf:RDF><cc:Work
     rdf:about=""><dc:format>image/svg+xml</dc:format><dc:type
       rdf:resource="http://purl.org/dc/dcmitype/StillImage" /><dc:title></dc:title></cc:Work></rdf:RDF></metadata><g
     id="g4140"
     transform="matrix(-1,0,0,-1,1000,999.9975)"><g
       transform="matrix(0.1,0,0,-0.1,0,511)"
       id="g4142"><path
         d="m 1840,4360.2 c -69.4,-38.3 -124.4,-157.9 -100.5,-222.5 7.2,-21.5 35.9,-64.6 62.2,-93.3 l 47.8,-55 3150.5,0 3150.5,0 47.8,55 c 93.3,98.1 74.1,256 -40.7,315.8 -102.8,52.7 -6219.5,52.7 -6317.6,0 z"
         id="path4144"
         style="fill:#40aa6b;fill-opacity:1"
         inkscape:connector-curvature="0" /><path
         d="m 1038.6,3549.3 c -162.7,-71.8 -157.9,-296.6 4.8,-363.6 119.6,-50.2 7793.6,-50.2 7913.2,0 167.5,69.4 167.5,294.2 0,363.6 -117.2,47.8 -7805.6,47.8 -7918,0 z"
         id="path4146"
         style="fill:#40aa6b;fill-opacity:1"
         inkscape:connector-curvature="0" /><path
         d="m 167.9,2697.7 c -26.3,-26.3 -52.6,-71.8 -59.8,-100.5 -7.2,-31.1 -9.6,-1542.9 -7.2,-3361 l 7.2,-3305.9 55,-55 55,-55 4781.9,0 4781.9,0 55,55 55,55 7.2,3305.9 c 2.4,1818 0,3329.9 -7.2,3361 -7.2,28.7 -33.5,74.2 -59.8,100.5 -47.8,47.8 -100.5,47.8 -4832.1,47.8 -4731.7,0 -4784.3,0 -4832.1,-47.8 z m 9324.5,-3413.6 -7.2,-3057.2 -4485.2,0 -4485.3,0 -7.2,3057.2 -4.8,3054.8 4497.3,0 4497.2,0 -4.8,-3054.8 z"
         id="path4148"
         style="fill:#40aa6b;fill-opacity:1"
         inkscape:connector-curvature="0" /><path
         d="m 6269.8014,-1916.3073 62.2,74.2 0,1121.80001 c 0,1184.1 -4.8,1234.4 -107.6,1275 -122,45.4 -215.3,7.2 -1284.6,-526.299997 C 4344.1015,-268.20729 3820.3015,-538.50729 3777.2015,-569.60729 c -90.9,-71.8 -102.9,-174.6 -28.7,-248.8 26.3,-26.3 555,-301.40001 1174.4999,-610.00001 799,-399.4 1145.9,-562.1 1203.3,-562.1 62.2,0 98,19.1 143.5,74.2 z"
         id="path4150"
         style="fill:#40aa6b;fill-opacity:1"
         inkscape:connector-curvature="0" /></g></g></svg>